<?xml version="1.0" encoding="UTF-8"?> <svg xmlns="http://www.w3.org/2000/svg" width="500" height="500" viewBox="0 0 500 500" fill="none"><g id="Frame 1" clip-path="url(#clip0_1_2)"><rect width="500" height="500" fill="white"></rect><g id="BandeauBlock" filter="url(#filter0_d_1_2)"><rect id="Rectangle 1" x="22" y="381" width="100" height="100" fill="#FFE505"></rect><rect id="Rectangle 2" x="142" y="381" width="100" height="100" fill="#FFE505"></rect><rect id="Rectangle 3" x="262" y="381" width="100" height="100" fill="#FFE505"></rect><rect id="Rectangle 4" x="382" y="381" width="100" height="100" fill="#FFE505"></rect><rect id="Rectangle 4" x="502" y="381" width="100" height="100" fill="#DCED19"></rect><rect id="Rectangle 4" x="622" y="381" width="100" height="100" fill="#DCED19"></rect><animateTransform attributeName="transform" attributeType="XML" type="translate" dur="3s" values="0,0;-120,0" repeatCount="indefinite"></animateTransform></g><g id="Bandeau"><rect id="piBlock" x="22" y="17" width="241" height="348" fill="#203864"></rect><animateTransform attributeName="transform" attributeType="XML" type="rotate" dur="2s" values="-3 30 -20;3 30 -20;-3 30 -20" repeatCount="indefinite"></animateTransform></g><g id="pi3" filter="url(#filter1_d_1_2)"><path d="M123.118 210.55C123.118 213.16 122.173 215.41 120.283 217.3C118.483 219.1 116.278 220 113.668 220H85.3185V248.35H75.8685V172.75H85.3185V179.5L92.0685 172.75H113.668C116.278 172.75 118.483 173.695 120.283 175.585C122.173 177.385 123.118 179.59 123.118 182.2V210.55ZM113.668 211.9V180.85H85.3185V218.65L92.0685 211.9H113.668ZM206.17 210.55C206.17 213.16 205.225 215.41 203.335 217.3C201.535 219.1 199.33 220 196.72 220H168.37C165.76 220 163.51 219.1 161.62 217.3C159.82 215.41 158.92 213.16 158.92 210.55V201.1H169.72V210.55H195.37V191.65H177.82V183.82L196.72 164.65V163.3H158.92V153.85H206.17V167.485L191.455 182.2V183.55C191.455 183.46 191.95 183.415 192.94 183.415C193.39 183.415 193.93 183.415 194.56 183.415C195.19 183.415 195.91 183.46 196.72 183.55C199.33 183.64 201.535 184.63 203.335 186.52C205.225 188.32 206.17 190.48 206.17 193V210.55Z" fill="white"></path><path d="M144.75 164.65H135.3V153.85H144.75V164.65ZM144.75 220H135.3V179.5L144.75 170.05V220Z" fill="#FFE505"></path><animateTransform attributeName="transform" attributeType="XML" type="rotate" dur="3s" values="-3 30 -20;3 30 -20;-3 30 -20" repeatCount="indefinite"></animateTransform></g><g id="Block"><g id="K"><path d="M413.855 301.28L385.439 327.776V329.056H401.695C404.17 329.056 406.26 329.952 407.967 331.744C409.759 333.451 410.655 335.541 410.655 338.016V364H400.415V337.12H367.135V364H356.895V301.28H367.135V335.456L401.183 301.28H413.855Z" fill="#1A438E"></path><path d="M413.855 301.28L415.219 302.743L418.933 299.28H413.855V301.28ZM385.439 327.776L384.075 326.313L383.439 326.906V327.776H385.439ZM385.439 329.056H383.439V331.056H385.439V329.056ZM407.967 331.744L406.519 333.123L406.552 333.159L406.588 333.192L407.967 331.744ZM410.655 364V366H412.655V364H410.655ZM400.415 364H398.415V366H400.415V364ZM400.415 337.12H402.415V335.12H400.415V337.12ZM367.135 337.12V335.12H365.135V337.12H367.135ZM367.135 364V366H369.135V364H367.135ZM356.895 364H354.895V366H356.895V364ZM356.895 301.28V299.28H354.895V301.28H356.895ZM367.135 301.28H369.135V299.28H367.135V301.28ZM367.135 335.456H365.135V340.297L368.552 336.868L367.135 335.456ZM401.183 301.28V299.28H400.352L399.766 299.868L401.183 301.28ZM412.491 299.817L384.075 326.313L386.803 329.239L415.219 302.743L412.491 299.817ZM383.439 327.776V329.056H387.439V327.776H383.439ZM385.439 331.056H401.695V327.056H385.439V331.056ZM401.695 331.056C403.622 331.056 405.19 331.728 406.519 333.123L409.415 330.365C407.331 328.176 404.717 327.056 401.695 327.056V331.056ZM406.588 333.192C407.983 334.521 408.655 336.089 408.655 338.016H412.655C412.655 334.994 411.535 332.38 409.346 330.296L406.588 333.192ZM408.655 338.016V364H412.655V338.016H408.655ZM410.655 362H400.415V366H410.655V362ZM402.415 364V337.12H398.415V364H402.415ZM400.415 335.12H367.135V339.12H400.415V335.12ZM365.135 337.12V364H369.135V337.12H365.135ZM367.135 362H356.895V366H367.135V362ZM358.895 364V301.28H354.895V364H358.895ZM356.895 303.28H367.135V299.28H356.895V303.28ZM365.135 301.28V335.456H369.135V301.28H365.135ZM368.552 336.868L402.6 302.692L399.766 299.868L365.718 334.044L368.552 336.868ZM401.183 303.28H413.855V299.28H401.183V303.28Z" fill="#FFE505"></path><animateTransform attributeName="transform" attributeType="XML" type="translate" dur="6s" values="0,-600;0,0;0,-600" repeatCount="indefinite" begin="0s"></animateTransform></g><g id="C"><path d="M410.952 282.04C410.952 284.515 410.057 286.648 408.265 288.44C406.558 290.147 404.467 291 401.993 291H366.153C363.678 291 361.545 290.147 359.753 288.44C358.046 286.648 357.193 284.515 357.193 282.04V237.24C357.193 234.765 358.046 232.675 359.753 230.968C361.545 229.176 363.678 228.28 366.153 228.28H401.993C404.467 228.28 406.558 229.176 408.265 230.968C410.057 232.675 410.952 234.765 410.952 237.24V246.2H400.713V237.24H367.433V282.04H400.713V273.08H410.952V282.04Z" fill="#1A438E"></path><path d="M408.265 288.44L409.679 289.854L409.679 289.854L408.265 288.44ZM359.753 288.44L358.304 289.819L358.338 289.855L358.373 289.888L359.753 288.44ZM359.753 230.968L361.167 232.382L361.167 232.382L359.753 230.968ZM408.265 230.968L406.816 232.347L406.85 232.383L406.885 232.416L408.265 230.968ZM410.952 246.2V248.2H412.952V246.2H410.952ZM400.713 246.2H398.713V248.2H400.713V246.2ZM400.713 237.24H402.713V235.24H400.713V237.24ZM367.433 237.24V235.24H365.433V237.24H367.433ZM367.433 282.04H365.433V284.04H367.433V282.04ZM400.713 282.04V284.04H402.713V282.04H400.713ZM400.713 273.08V271.08H398.713V273.08H400.713ZM410.952 273.08H412.952V271.08H410.952V273.08ZM408.952 282.04C408.952 283.97 408.277 285.599 406.85 287.026L409.679 289.854C411.836 287.697 412.952 285.059 412.952 282.04H408.952ZM406.85 287.026C405.529 288.347 403.952 289 401.993 289V293C404.983 293 407.586 291.946 409.679 289.854L406.85 287.026ZM401.993 289H366.153V293H401.993V289ZM366.153 289C364.191 289 362.552 288.344 361.132 286.992L358.373 289.888C360.537 291.949 363.164 293 366.153 293V289ZM361.201 287.061C359.848 285.641 359.193 284.001 359.193 282.04H355.193C355.193 285.028 356.243 287.655 358.304 289.819L361.201 287.061ZM359.193 282.04V237.24H355.193V282.04H359.193ZM359.193 237.24C359.193 235.281 359.846 233.703 361.167 232.382L358.338 229.554C356.246 231.646 355.193 234.25 355.193 237.24H359.193ZM361.167 232.382C362.594 230.955 364.222 230.28 366.153 230.28V226.28C363.133 226.28 360.495 227.397 358.338 229.554L361.167 232.382ZM366.153 230.28H401.993V226.28H366.153V230.28ZM401.993 230.28C403.92 230.28 405.487 230.952 406.816 232.347L409.713 229.589C407.629 227.4 405.015 226.28 401.993 226.28V230.28ZM406.885 232.416C408.281 233.745 408.952 235.313 408.952 237.24H412.952C412.952 234.218 411.832 231.604 409.644 229.52L406.885 232.416ZM408.952 237.24V246.2H412.952V237.24H408.952ZM410.952 244.2H400.713V248.2H410.952V244.2ZM402.713 246.2V237.24H398.713V246.2H402.713ZM400.713 235.24H367.433V239.24H400.713V235.24ZM365.433 237.24V282.04H369.433V237.24H365.433ZM367.433 284.04H400.713V280.04H367.433V284.04ZM402.713 282.04V273.08H398.713V282.04H402.713ZM400.713 275.08H410.952V271.08H400.713V275.08ZM408.952 273.08V282.04H412.952V273.08H408.952Z" fill="#FFE505"></path><animateTransform attributeName="transform" attributeType="XML" type="translate" dur="6s" values="0,-450;0,0;0,-450" repeatCount="indefinite"></animateTransform></g><g id="O"><path d="M409.39 209.04C409.39 211.515 408.494 213.648 406.702 215.44C404.995 217.147 402.905 218 400.43 218H364.59C362.115 218 359.982 217.147 358.19 215.44C356.483 213.648 355.63 211.515 355.63 209.04V164.24C355.63 161.765 356.483 159.675 358.19 157.968C359.982 156.176 362.115 155.28 364.59 155.28H400.43C402.905 155.28 404.995 156.176 406.702 157.968C408.494 159.675 409.39 161.765 409.39 164.24V209.04ZM399.15 209.04V164.24H365.87V209.04H399.15Z" fill="#1A438E"></path><path d="M406.702 215.44L408.116 216.854L408.116 216.854L406.702 215.44ZM358.19 215.44L356.742 216.819L356.775 216.855L356.811 216.888L358.19 215.44ZM358.19 157.968L359.604 159.382L359.604 159.382L358.19 157.968ZM406.702 157.968L405.254 159.347L405.287 159.383L405.323 159.416L406.702 157.968ZM399.15 209.04V211.04H401.15V209.04H399.15ZM399.15 164.24H401.15V162.24H399.15V164.24ZM365.87 164.24V162.24H363.87V164.24H365.87ZM365.87 209.04H363.87V211.04H365.87V209.04ZM407.39 209.04C407.39 210.97 406.715 212.599 405.288 214.026L408.116 216.854C410.273 214.697 411.39 212.059 411.39 209.04H407.39ZM405.288 214.026C403.967 215.347 402.389 216 400.43 216V220C403.42 220 406.024 218.946 408.116 216.854L405.288 214.026ZM400.43 216H364.59V220H400.43V216ZM364.59 216C362.629 216 360.989 215.344 359.569 213.992L356.811 216.888C358.975 218.949 361.602 220 364.59 220V216ZM359.638 214.061C358.286 212.641 357.63 211.001 357.63 209.04H353.63C353.63 212.028 354.681 214.655 356.742 216.819L359.638 214.061ZM357.63 209.04V164.24H353.63V209.04H357.63ZM357.63 164.24C357.63 162.281 358.283 160.703 359.604 159.382L356.776 156.554C354.684 158.646 353.63 161.25 353.63 164.24H357.63ZM359.604 159.382C361.031 157.955 362.66 157.28 364.59 157.28V153.28C361.571 153.28 358.933 154.397 356.776 156.554L359.604 159.382ZM364.59 157.28H400.43V153.28H364.59V157.28ZM400.43 157.28C402.357 157.28 403.925 157.952 405.254 159.347L408.15 156.589C406.066 154.4 403.452 153.28 400.43 153.28V157.28ZM405.323 159.416C406.718 160.745 407.39 162.313 407.39 164.24H411.39C411.39 161.218 410.27 158.604 408.081 156.52L405.323 159.416ZM407.39 164.24V209.04H411.39V164.24H407.39ZM401.15 209.04V164.24H397.15V209.04H401.15ZM399.15 162.24H365.87V166.24H399.15V162.24ZM363.87 164.24V209.04H367.87V164.24H363.87ZM365.87 211.04H399.15V207.04H365.87V211.04Z" fill="#FFE505"></path><animateTransform attributeName="transform" attributeType="XML" type="translate" dur="6s" values="0,-300;0,0;0,-300" repeatCount="indefinite"></animateTransform></g><g id="L"><path d="M410.008 145H365.208V82.28H375.448V136.04H399.768V127.08H410.008V145Z" fill="#1A438E"></path><path d="M410.008 145V147H412.008V145H410.008ZM365.208 145H363.208V147H365.208V145ZM365.208 82.28V80.28H363.208V82.28H365.208ZM375.448 82.28H377.448V80.28H375.448V82.28ZM375.448 136.04H373.448V138.04H375.448V136.04ZM399.768 136.04V138.04H401.768V136.04H399.768ZM399.768 127.08V125.08H397.768V127.08H399.768ZM410.008 127.08H412.008V125.08H410.008V127.08ZM410.008 143H365.208V147H410.008V143ZM367.208 145V82.28H363.208V145H367.208ZM365.208 84.28H375.448V80.28H365.208V84.28ZM373.448 82.28V136.04H377.448V82.28H373.448ZM375.448 138.04H399.768V134.04H375.448V138.04ZM401.768 136.04V127.08H397.768V136.04H401.768ZM399.768 129.08H410.008V125.08H399.768V129.08ZM408.008 127.08V145H412.008V127.08H408.008Z" fill="#FFE505"></path><animateTransform attributeName="transform" attributeType="XML" type="translate" dur="6s" values="0,-250;0,0;0,-250" repeatCount="indefinite"></animateTransform></g><g id="B"><path d="M410.655 63.04C410.655 65.5147 409.759 67.648 407.967 69.44C406.26 71.1467 404.17 72 401.695 72H356.895V27.2L365.855 18.24H356.895V9.28H392.735C395.21 9.28 397.3 10.176 399.007 11.968C400.799 13.6747 401.695 15.7653 401.695 18.24V36.16H401.951C404.426 36.16 406.474 37.056 408.095 38.848C409.802 40.5547 410.655 42.6453 410.655 45.12V63.04ZM391.455 36.16V18.24H367.135V43.84L374.815 36.16H391.455ZM400.415 63.04V45.12H367.135V63.04H400.415Z" fill="#1A438E"></path><path d="M407.967 69.44L406.553 68.0258L406.553 68.0258L407.967 69.44ZM356.895 72H354.895V74H356.895V72ZM356.895 27.2L355.481 25.7858L354.895 26.3716V27.2H356.895ZM365.855 18.24L367.269 19.6542L370.683 16.24H365.855V18.24ZM356.895 18.24H354.895V20.24H356.895V18.24ZM356.895 9.28V7.28H354.895V9.28H356.895ZM399.007 11.968L397.559 13.3473L397.592 13.3826L397.628 13.4163L399.007 11.968ZM401.695 36.16H399.695V38.16H401.695V36.16ZM408.095 38.848L406.612 40.1898L406.645 40.2269L406.681 40.2622L408.095 38.848ZM391.455 36.16V38.16H393.455V36.16H391.455ZM391.455 18.24H393.455V16.24H391.455V18.24ZM367.135 18.24V16.24H365.135V18.24H367.135ZM367.135 43.84H365.135V48.6684L368.549 45.2542L367.135 43.84ZM374.815 36.16V34.16H373.987L373.401 34.7458L374.815 36.16ZM400.415 63.04V65.04H402.415V63.04H400.415ZM400.415 45.12H402.415V43.12H400.415V45.12ZM367.135 45.12V43.12H365.135V45.12H367.135ZM367.135 63.04H365.135V65.04H367.135V63.04ZM408.655 63.04C408.655 64.9701 407.98 66.5987 406.553 68.0258L409.381 70.8542C411.538 68.6973 412.655 66.0592 412.655 63.04H408.655ZM406.553 68.0258C405.232 69.3469 403.654 70 401.695 70V74C404.685 74 407.289 72.9464 409.381 70.8542L406.553 68.0258ZM401.695 70H356.895V74H401.695V70ZM358.895 72V27.2H354.895V72H358.895ZM358.309 28.6142L367.269 19.6542L364.441 16.8258L355.481 25.7858L358.309 28.6142ZM365.855 16.24H356.895V20.24H365.855V16.24ZM358.895 18.24V9.28H354.895V18.24H358.895ZM356.895 11.28H392.735V7.28H356.895V11.28ZM392.735 11.28C394.662 11.28 396.23 11.9517 397.559 13.3473L400.455 10.5887C398.371 8.40033 395.757 7.28 392.735 7.28V11.28ZM397.628 13.4163C399.023 14.7455 399.695 16.3127 399.695 18.24H403.695C403.695 15.218 402.575 12.6039 400.386 10.5197L397.628 13.4163ZM399.695 18.24V36.16H403.695V18.24H399.695ZM401.695 38.16H401.951V34.16H401.695V38.16ZM401.951 38.16C403.876 38.16 405.38 38.8282 406.612 40.1898L409.578 37.5062C407.567 35.2838 404.975 34.16 401.951 34.16V38.16ZM406.681 40.2622C408.002 41.5833 408.655 43.1607 408.655 45.12H412.655C412.655 42.1299 411.601 39.526 409.509 37.4338L406.681 40.2622ZM408.655 45.12V63.04H412.655V45.12H408.655ZM393.455 36.16V18.24H389.455V36.16H393.455ZM391.455 16.24H367.135V20.24H391.455V16.24ZM365.135 18.24V43.84H369.135V18.24H365.135ZM368.549 45.2542L376.229 37.5742L373.401 34.7458L365.721 42.4258L368.549 45.2542ZM374.815 38.16H391.455V34.16H374.815V38.16ZM402.415 63.04V45.12H398.415V63.04H402.415ZM400.415 43.12H367.135V47.12H400.415V43.12ZM365.135 45.12V63.04H369.135V45.12H365.135ZM367.135 65.04H400.415V61.04H367.135V65.04Z" fill="#FFE505"></path><animateTransform attributeName="transform" attributeType="XML" type="translate" dur="6s" values="0,-150;0,0;0,-150" repeatCount="indefinite"></animateTransform></g></g><g id="BandeauContour"><rect id="ContourPiBlock" x="42" y="33" width="204" height="315" stroke="#FFE505" stroke-width="8"></rect><animateTransform attributeName="transform" attributeType="XML" type="rotate" dur="2s" values="-3 30 -20;3 30 -20;-3 30 -20" repeatCount="indefinite"></animateTransform></g></g><defs><filter id="filter0_d_1_2" x="18" y="381" width="948" height="108" filterUnits="userSpaceOnUse" color-interpolation-filters="sRGB"><feFlood flood-opacity="0" result="BackgroundImageFix"></feFlood><feColorMatrix in="SourceAlpha" type="matrix" values="0 0 0 0 0 0 0 0 0 0 0 0 0 0 0 0 0 0 127 0" result="hardAlpha"></feColorMatrix><feOffset dy="4"></feOffset><feGaussianBlur stdDeviation="2"></feGaussianBlur><feComposite in2="hardAlpha" operator="out"></feComposite><feColorMatrix type="matrix" values="0 0 0 0 0 0 0 0 0 0 0 0 0 0 0 0 0 0 0.25 0"></feColorMatrix><feBlend mode="normal" in2="BackgroundImageFix" result="effect1_dropShadow_1_2"></feBlend><feBlend mode="normal" in="SourceGraphic" in2="effect1_dropShadow_1_2" result="shape"></feBlend></filter><filter id="filter1_d_1_2" x="71.8685" y="153.85" width="138.301" height="102.5" filterUnits="userSpaceOnUse" color-interpolation-filters="sRGB"><feFlood flood-opacity="0" result="BackgroundImageFix"></feFlood><feColorMatrix in="SourceAlpha" type="matrix" values="0 0 0 0 0 0 0 0 0 0 0 0 0 0 0 0 0 0 127 0" result="hardAlpha"></feColorMatrix><feOffset dy="4"></feOffset><feGaussianBlur stdDeviation="2"></feGaussianBlur><feComposite in2="hardAlpha" operator="out"></feComposite><feColorMatrix type="matrix" values="0 0 0 0 0 0 0 0 0 0 0 0 0 0 0 0 0 0 0.25 0"></feColorMatrix><feBlend mode="normal" in2="BackgroundImageFix" result="effect1_dropShadow_1_2"></feBlend><feBlend mode="normal" in="SourceGraphic" in2="effect1_dropShadow_1_2" result="shape"></feBlend></filter><clipPath id="clip0_1_2"><rect width="500" height="500" fill="white"></rect></clipPath></defs></svg> 